<svg xmlns="http://www.w3.org/2000/svg" version="1.1" xmlns:xlink="http://www.w3.org/1999/xlink" viewBox="0 0 200 200"><rect width="200" height="200" fill="url('#gradient')"></rect><defs><linearGradient id="gradient" gradientTransform="rotate(45 0.5 0.5)"><stop offset="0%" stop-color="#fa7439"></stop><stop offset="100%" stop-color="#eb2e40"></stop></linearGradient></defs><g><g fill="#5bab32" transform="matrix(4.377107575397768,0,0,4.377107575397768,7.775002843324145,132.39293851967918)" stroke="#5ed03e" stroke-width="0.2"><path d="M5.39-2.34L5.39-2.34Q6.08-2.34 6.46-2.72Q6.85-3.10 6.84-3.77L6.84-3.77L9.92-3.77Q9.92-2.03 8.68-0.92Q7.43 0.20 5.47 0.20L5.47 0.20Q3.16 0.20 1.84-1.25Q0.51-2.70 0.51-5.25L0.51-5.25L0.51-5.39Q0.51-6.99 1.10-8.22Q1.69-9.44 2.80-10.10Q3.92-10.76 5.44-10.76L5.44-10.76Q7.50-10.76 8.71-9.62Q9.92-8.48 9.92-6.52L9.92-6.52L6.84-6.52Q6.84-7.34 6.44-7.78Q6.04-8.22 5.36-8.22L5.36-8.22Q4.08-8.22 3.87-6.59L3.87-6.59Q3.80-6.07 3.80-5.17L3.80-5.17Q3.80-3.57 4.18-2.96Q4.56-2.34 5.39-2.34ZM20.56 0L17.27 0Q17.09-0.32 16.95-0.95L16.95-0.95Q16.04 0.20 14.41 0.20L14.41 0.20Q12.92 0.20 11.88-0.71Q10.83-1.61 10.83-2.98L10.83-2.98Q10.83-4.70 12.10-5.58Q13.37-6.46 15.79-6.46L15.79-6.46L16.81-6.46L16.81-7.01Q16.81-8.47 15.55-8.47L15.55-8.47Q14.38-8.47 14.38-7.31L14.38-7.31L11.08-7.31Q11.08-8.85 12.39-9.80Q13.69-10.76 15.71-10.76Q17.73-10.76 18.91-9.78Q20.08-8.79 20.11-7.07L20.11-7.07L20.11-2.39Q20.13-0.94 20.56-0.17L20.56-0.17L20.56 0ZM15.21-2.15L15.21-2.15Q15.82-2.15 16.23-2.41Q16.63-2.68 16.81-3.01L16.81-3.01L16.81-4.70L15.85-4.70Q14.13-4.70 14.13-3.15L14.13-3.15Q14.13-2.71 14.43-2.43Q14.74-2.15 15.21-2.15ZM27.46-2.97L27.46-2.97Q27.46-3.39 27.02-3.64Q26.58-3.90 25.35-4.17Q24.12-4.44 23.32-4.89Q22.52-5.33 22.10-5.97Q21.68-6.60 21.68-7.42L21.68-7.42Q21.68-8.88 22.88-9.82Q24.08-10.76 26.03-10.76L26.03-10.76Q28.12-10.76 29.38-9.81Q30.65-8.87 30.65-7.32L30.65-7.32L27.35-7.32Q27.35-8.59 26.02-8.59L26.02-8.59Q25.50-8.59 25.15-8.31Q24.79-8.02 24.79-7.59L24.79-7.59Q24.79-7.15 25.22-6.88Q25.65-6.60 26.60-6.43Q27.54-6.25 28.25-6.01L28.25-6.01Q30.63-5.19 30.63-3.07L30.63-3.07Q30.63-1.62 29.35-0.71Q28.07 0.20 26.03 0.20L26.03 0.20Q24.67 0.20 23.60-0.29Q22.54-0.78 21.94-1.62Q21.35-2.46 21.35-3.39L21.35-3.39L24.42-3.39Q24.44-2.66 24.91-2.32Q25.38-1.98 26.11-1.98L26.11-1.98Q26.79-1.98 27.12-2.26Q27.46-2.53 27.46-2.97ZM35.39-15L35.39-9.43Q36.45-10.76 38.09-10.76L38.09-10.76Q39.83-10.76 40.72-9.73Q41.61-8.69 41.63-6.67L41.63-6.67L41.63 0L38.33 0L38.33-6.59Q38.33-7.43 37.99-7.83Q37.65-8.22 36.83-8.22L36.83-8.22Q35.81-8.22 35.39-7.58L35.39-7.58L35.39 0L32.10 0L32.10-15L35.39-15Z"></path></g></g></svg>